<svg width="667" height="443" viewBox="0 0 667 443" fill="none" xmlns="http://www.w3.org/2000/svg">
<path d="M23 286.194V315H325H627V286.194V257.39H325H23V286.194Z" fill="white"/>
<path d="M23 201.268V222.624H325H627V201.268V179.913H325H23V201.268Z" fill="white"/>
<path d="M23 138.195V152.101H325H627V138.195V124.289H325H23V138.195Z" fill="white"/>
<path d="M23 78.5973V84.557H325H627V78.5973V72.6375H325H23V78.5973Z" fill="white"/>
<path d="M23 20.9866V22.9732H325H627V20.9866V19H325H23V20.9866Z" fill="white"/>
<path d="M44.5 406.5C40.4779 406.5 35.7845 405.878 33 404.5C30.2155 403.041 26.674 401.205 25.2044 398.126C23.7348 395.046 23 391.034 23 386.09V345L45.9558 345V379.039C45.9558 381.39 46.1856 383.648 46.5 384.5C46.8144 385.352 47 387 49 388.5C51 390 55.5 389.5 57 389C58.5 388.5 60.5 386.443 61 385.5C61.5 384.557 62 383 62 381.5C62 380 62 378.756 62 377.216V345H86V406H64.5V396C62 400 55.5 403.5 54.5 404C53.5 404.5 49.2956 406.5 44.5 406.5Z" fill="white"/>
<path d="M125.469 320.909V406H101.898V320.909H125.469Z" fill="white"/>
<path d="M433.469 320.909V406H409.898V320.909H433.469Z" fill="white"/>
<path d="M166.607 321.5V380.565C166.607 383.365 167.508 388.035 168.377 389.271C169.309 390.424 170.738 391 172.664 391C173.906 391 176.109 390.265 177 390C178 389.5 178.692 389.076 179.5 388.5L180.336 402.912C178.783 404.229 176.671 405.259 174 406C171.329 406.741 167.477 407 165.116 407C160.767 407 157.102 406.3 154.12 404.9C151.201 403.418 148.964 401.071 147.411 397.859C145.92 394.647 145.175 390.365 145.175 385.012V333L166.607 321.5ZM180.5 344.5V362.5H135.5V344.5H180.5Z" fill="white"/>
<path d="M474.607 321.5V380.565C474.607 383.365 475.508 388.035 476.377 389.271C477.309 390.424 478.738 391 480.664 391C481.906 391 484.109 390.265 485 390C486 389.5 486.692 389.076 487.5 388.5L488.336 402.912C486.783 404.229 484.671 405.259 482 406C479.329 406.741 475.477 407 473.116 407C468.767 407 465.102 406.3 462.12 404.9C459.201 403.418 456.964 401.071 455.411 397.859C453.92 394.647 453.175 390.365 453.175 385.012V333L474.607 321.5ZM488.5 344.5V362.5H443.5V344.5H488.5Z" fill="white"/>
<path d="M192 405.999V345.214H214.5V356.5C216 351.5 216.672 350.418 219 347.5C221.394 344.501 224.076 343 228 343C229.53 343 233.702 344.176 234.5 344.5C235.298 344.824 239.855 346.35 240.187 346.674L233 361.999C232.401 361.675 230.631 360.654 229.5 360.41C228.369 360.167 227.139 360.046 225.809 360.046C223.814 360.046 221.5 360.997 220.5 361.999C219.5 363 218.365 364.541 217.5 366C216.702 367.459 215.5 369 214.944 378.5V405.999H192Z" fill="white"/>
<path d="M579 405.999V345.214H601.5V356.5C603 351.5 603.672 350.418 606 347.5C608.394 344.501 611.076 343 615 343C616.53 343 620.702 344.176 621.5 344.5C622.298 344.824 626.855 346.35 627.187 346.674L620 361.999C619.401 361.675 617.631 360.654 616.5 360.41C615.369 360.167 614.139 360.046 612.809 360.046C610.814 360.046 608.5 360.997 607.5 361.999C606.5 363 605.365 364.541 604.5 366C603.702 367.459 602.5 369 601.944 378.5V405.999H579Z" fill="white"/>
<path d="M394.592 344.499V406.787H371.021V344.499H394.592Z" fill="white"/>
<path d="M371.021 335.499V321H394.592V335.499H371.021Z" fill="white"/>
<path fill-rule="evenodd" clip-rule="evenodd" d="M535.396 406.5C527.551 406.5 519.5 404.091 516.5 403C513.5 401.909 507 397.5 504.5 394.5C502 391.5 498 387 498 375.5C498 364 499.891 361.714 501.446 358.417C503 355.121 509.095 349.423 514.5 347C519.992 344.496 526.265 343 533.5 343C540.909 343 547.905 345.252 553.048 347.756C558.278 350.179 562.244 353.612 564.947 358.054C567.649 362.496 569 367.665 569 373.562C569 374.854 568.913 376.187 568.738 377.56C568.651 378.933 568.521 380.023 568.346 380.831H521.5V383.5C521.5 385 522 389.5 527 391.5C530.75 393 535.396 392.583 535.396 392.583C537.662 392.583 539.406 392.138 540.626 391.25C541.934 390.281 542.5 389.5 543.5 388.5L566 390.5C564.5 394 562.312 396.335 559 399C555.688 401.585 553.12 403.708 548.5 405C543.967 406.292 540.277 406.5 535.396 406.5ZM545 370.533H538.5H521.5C521.5 367.06 521.5 366.5 522 363.5C522.5 360.5 525.415 358.417 526 358C526.585 357.583 528.5 356 533 356C537.5 356 540 358.417 541.5 360.5C543 362.583 545 366.171 545 370.533Z" fill="white"/>
<path fill-rule="evenodd" clip-rule="evenodd" d="M286.431 361.437C286.431 359.579 285.926 358.55 285 357.5C284.158 356.45 282 356 281 356C280 356 277.5 355.5 273.5 357C269.5 358.5 268.5 360.5 267.5 363.5L245.052 362.923C245.641 356.219 251 351.532 252.851 349.937C258 345.5 266.281 344 276.721 344C284.047 344 290.5 344 295.5 345.5C300.5 347 305 350.5 307 354C309 357.5 309.5 362.396 309.5 367V385.779C309.5 389.09 310.045 397.68 310.5 399.5C310.955 401.32 312.5 406 312.5 406H292C289.72 403.087 289.058 396.996 289.058 396.996C288.582 397.655 288.054 398.314 287.5 399C285.563 401.423 282.284 403.046 279 404.5C275.716 405.954 267.923 407 263.713 407C259.25 407 255.461 406.354 252.346 405.062C249.315 403.769 246.999 401.912 245.4 399.488C243.8 397.065 243 394.198 243 390.887C243 386.444 243.5 382.5 246.5 378.5C249.5 374.5 253.943 372.55 259.5 371.5C265.057 370.45 273.5 370.5 279.5 369C282.029 368.368 285.112 366.274 286.604 365.18L286.431 361.437ZM268 383.5C268.785 382.746 269.5 382 271.574 381.187C273.448 380.452 284.929 377.221 287.134 376.603C287.134 376.603 287.134 381.5 287.134 383.5C287.134 385.5 285.5 388 284 390C282.5 392 280 394 276.5 394.5C273 395 268.5 393.5 267.5 391.5C266.5 389.5 266.649 387.277 266.649 386.638C266.649 386 267.215 384.254 268 383.5Z" fill="white"/>
<path d="M361 334C360 334 359.5 334 357 334C354.5 334 351.5 335.5 351.437 337C351.374 338.5 351.437 341.605 351.437 344.596L361.07 344.706V362.5H351.437V406.303H327.866V362.5H317.5V344.206H327.866C327.866 339.518 327.202 334.572 328.5 331.5C329.866 328.348 332.245 325.36 334.5 323.5C335.5 322.676 338 321 340 321H367.5L364 334H361Z" fill="white"/>
</svg>
